<mxfile host="Electron" modified="2023-11-22T10:49:24.276Z" agent="Mozilla/5.0 (Windows NT 10.0; Win64; x64) AppleWebKit/537.36 (KHTML, like Gecko) draw.io/22.1.2 Chrome/114.0.5735.289 Electron/25.9.4 Safari/537.36" etag="Y2SZ732HmQa4HWLNsj5C" version="22.1.2" type="device">
  <diagram name="Page-1" id="e3TPnM5U20VRGgEgl0Jg">
    <mxGraphModel dx="1434" dy="844" grid="1" gridSize="10" guides="1" tooltips="1" connect="1" arrows="1" fold="1" page="1" pageScale="1" pageWidth="827" pageHeight="1169" math="0" shadow="0">
      <root>
        <mxCell id="0" />
        <mxCell id="1" parent="0" />
        <mxCell id="Omefbcx3pCzOOw2LBf7c-1" value="Entrez le nombre de photocopies souhaité" style="ellipse;whiteSpace=wrap;html=1;" vertex="1" parent="1">
          <mxGeometry x="340" y="20" width="120" height="80" as="geometry" />
        </mxCell>
        <mxCell id="Omefbcx3pCzOOw2LBf7c-2" value="" style="endArrow=classic;html=1;rounded=0;" edge="1" parent="1">
          <mxGeometry width="50" height="50" relative="1" as="geometry">
            <mxPoint x="399.5" y="100" as="sourcePoint" />
            <mxPoint x="399.5" y="170" as="targetPoint" />
          </mxGeometry>
        </mxCell>
        <mxCell id="Omefbcx3pCzOOw2LBf7c-3" value="Si nombre de photocopies &amp;lt;= 10" style="rhombus;whiteSpace=wrap;html=1;fontColor=#000000;fillColor=#ffffc0;strokeColor=#ff0000;" vertex="1" parent="1">
          <mxGeometry x="335" y="170" width="130" height="100" as="geometry" />
        </mxCell>
        <mxCell id="Omefbcx3pCzOOw2LBf7c-7" value="" style="endArrow=classic;html=1;rounded=0;" edge="1" parent="1">
          <mxGeometry width="50" height="50" relative="1" as="geometry">
            <mxPoint x="465" y="219.5" as="sourcePoint" />
            <mxPoint x="545" y="219.5" as="targetPoint" />
          </mxGeometry>
        </mxCell>
        <mxCell id="Omefbcx3pCzOOw2LBf7c-8" value="nombre de photocopie * 0,10" style="ellipse;whiteSpace=wrap;html=1;" vertex="1" parent="1">
          <mxGeometry x="340" y="340" width="120" height="80" as="geometry" />
        </mxCell>
        <mxCell id="Omefbcx3pCzOOw2LBf7c-9" value="" style="endArrow=classic;html=1;rounded=0;" edge="1" parent="1">
          <mxGeometry width="50" height="50" relative="1" as="geometry">
            <mxPoint x="399.5" y="270" as="sourcePoint" />
            <mxPoint x="399.5" y="340" as="targetPoint" />
          </mxGeometry>
        </mxCell>
        <mxCell id="Omefbcx3pCzOOw2LBf7c-12" value="nombre de photocopie * 0,09" style="ellipse;whiteSpace=wrap;html=1;" vertex="1" parent="1">
          <mxGeometry x="550" y="340" width="120" height="80" as="geometry" />
        </mxCell>
        <mxCell id="Omefbcx3pCzOOw2LBf7c-13" value="Si nombre de photocopies &amp;lt;= 50" style="rhombus;whiteSpace=wrap;html=1;fontColor=#000000;fillColor=#ffffc0;strokeColor=#ff0000;" vertex="1" parent="1">
          <mxGeometry x="755" y="170" width="130" height="100" as="geometry" />
        </mxCell>
        <mxCell id="Omefbcx3pCzOOw2LBf7c-14" value="" style="endArrow=classic;html=1;rounded=0;entryX=0.5;entryY=0;entryDx=0;entryDy=0;" edge="1" parent="1" target="Omefbcx3pCzOOw2LBf7c-12">
          <mxGeometry width="50" height="50" relative="1" as="geometry">
            <mxPoint x="609.5" y="270" as="sourcePoint" />
            <mxPoint x="609.5" y="330" as="targetPoint" />
          </mxGeometry>
        </mxCell>
        <mxCell id="Omefbcx3pCzOOw2LBf7c-15" value="Cela vous coûtera 4,40 €" style="ellipse;whiteSpace=wrap;html=1;" vertex="1" parent="1">
          <mxGeometry x="760" y="340" width="120" height="80" as="geometry" />
        </mxCell>
        <mxCell id="Omefbcx3pCzOOw2LBf7c-10" value="Si nombre de photocopies &amp;lt;= 30" style="rhombus;whiteSpace=wrap;html=1;fontColor=#000000;fillColor=#ffffc0;strokeColor=#ff0000;" vertex="1" parent="1">
          <mxGeometry x="545" y="170" width="130" height="100" as="geometry" />
        </mxCell>
        <mxCell id="Omefbcx3pCzOOw2LBf7c-18" value="" style="endArrow=classic;html=1;rounded=0;entryX=0.5;entryY=0;entryDx=0;entryDy=0;" edge="1" parent="1" target="Omefbcx3pCzOOw2LBf7c-22">
          <mxGeometry width="50" height="50" relative="1" as="geometry">
            <mxPoint x="399.5" y="420" as="sourcePoint" />
            <mxPoint x="399.5" y="490" as="targetPoint" />
          </mxGeometry>
        </mxCell>
        <mxCell id="Omefbcx3pCzOOw2LBf7c-20" value="" style="endArrow=classic;html=1;rounded=0;" edge="1" parent="1">
          <mxGeometry width="50" height="50" relative="1" as="geometry">
            <mxPoint x="819.5" y="270" as="sourcePoint" />
            <mxPoint x="819.5" y="340" as="targetPoint" />
          </mxGeometry>
        </mxCell>
        <mxCell id="Omefbcx3pCzOOw2LBf7c-21" value="" style="endArrow=classic;html=1;rounded=0;" edge="1" parent="1">
          <mxGeometry width="50" height="50" relative="1" as="geometry">
            <mxPoint x="675" y="219.5" as="sourcePoint" />
            <mxPoint x="755" y="220" as="targetPoint" />
          </mxGeometry>
        </mxCell>
        <mxCell id="Omefbcx3pCzOOw2LBf7c-22" value="Fin de l&#39;algorithme" style="ellipse;whiteSpace=wrap;html=1;" vertex="1" parent="1">
          <mxGeometry x="550" y="585" width="120" height="80" as="geometry" />
        </mxCell>
        <mxCell id="Omefbcx3pCzOOw2LBf7c-23" value="" style="endArrow=classic;html=1;rounded=0;entryX=0.5;entryY=0;entryDx=0;entryDy=0;" edge="1" parent="1" target="Omefbcx3pCzOOw2LBf7c-22">
          <mxGeometry width="50" height="50" relative="1" as="geometry">
            <mxPoint x="820" y="420" as="sourcePoint" />
            <mxPoint x="1030.5" y="585" as="targetPoint" />
          </mxGeometry>
        </mxCell>
        <mxCell id="Omefbcx3pCzOOw2LBf7c-24" value="" style="endArrow=classic;html=1;rounded=0;entryX=0.5;entryY=0;entryDx=0;entryDy=0;" edge="1" parent="1" target="Omefbcx3pCzOOw2LBf7c-22">
          <mxGeometry width="50" height="50" relative="1" as="geometry">
            <mxPoint x="610" y="420" as="sourcePoint" />
            <mxPoint x="820.5" y="585" as="targetPoint" />
          </mxGeometry>
        </mxCell>
      </root>
    </mxGraphModel>
  </diagram>
</mxfile>
